<svg xmlns="http://www.w3.org/2000/svg" viewBox="0 0 900 1200"><defs><linearGradient id="sky" x1="0" y1="0" x2="0" y2="1"><stop stop-color="#a7bebd"/><stop offset="1" stop-color="#e1d4be"/></linearGradient></defs><rect width="900" height="1200" fill="url(#sky)"/><circle cx="700" cy="270" r="90" fill="#f0e2c7" opacity=".75"/><path d="M0 650q250-100 450 20t450-20v550H0z" fill="#527b7d"/><path d="M0 790q230-80 470 15t430-30v425H0z" fill="#344e47"/><path d="M0 0h120v1200H0zm780 0h120v1200H780zM0 0h900v145H0z" fill="#292d2b"/><path d="M80 915h740v38H80zm65 38h45v247h-45zm565 0h45v247h-45z" fill="#292d2b"/><path d="M60 600q70-240 150-340-15 230 15 430zM840 610q-40-260-140-370 30 220-20 450z" fill="#38594e"/></svg>
